<svg width="937" height="1012" fill="none" xmlns="http://www.w3.org/2000/svg"><path d="M0 1h427.494c7.18 0 13 5.82 13 13v117.856c0 7.18 5.82 13 13 13h28.977c7.18 0 13 5.82 13 13V278.72c0 7.179 5.821 13 13 13h195.364c7.18 0 13 5.82 13 13v42.78c0 7.18-5.82 13-13 13H508.471c-7.179 0-13 5.82-13 13v118.748c0 7.18-5.82 13-13 13h-28.977c-7.18 0-13 5.82-13 13V639c0 7.18-5.82 13-13 13H233.165c-7.18 0-13 5.82-13 13v43.283c0 7.18 5.82 13 13 13h194.329c7.18 0 13 5.82 13 13V852.64c0 7.18 5.82 13 13 13h28.977c7.18 0 13 5.821 13 13V998c0 7.18 5.821 13 13 13H937" stroke="url(#a)" stroke-width=".8" stroke-dasharray="5 5"/><defs><linearGradient id="a" x1="13.603" y1="1" x2="1107.72" y2="767.232" gradientUnits="userSpaceOnUse"><stop stop-color="#BF1304" stop-opacity="0"/><stop offset=".516" stop-color="#BF1304"/><stop offset="1" stop-color="#BF1304" stop-opacity="0"/></linearGradient></defs></svg>