<svg xmlns="http://www.w3.org/2000/svg" width="151" height="47" fill="none"><g clip-path="url(#a)"><path d="M19.495 25.518c-.408 0-.825-.123-1.195-.378-.918-.64-1.118-1.928-.548-2.884l9.98-16.811c.339-.57.207-1.304-.31-1.712C24.062 1.018 19.635-.432 14.869.116 7.164.996.972 7.211.108 14.915c-.447 4.01.517 7.773 2.452 10.865L12.4 9.208a2.1 2.1 0 0 1 3.209-.486c.755.671.871 1.82.354 2.692L5.97 28.256c-.34.57-.208 1.303.308 1.712 3.363 2.714 7.782 4.164 12.555 3.617 7.704-.88 13.904-7.095 14.76-14.799.447-4.01-.517-7.773-2.452-10.866L21.3 24.493a2.104 2.104 0 0 1-1.805 1.025Zm-4.742-1.025a2.087 2.087 0 0 1-1.805 1.025c-.409 0-.825-.123-1.195-.378-.918-.64-1.118-1.928-.548-2.884l7.681-12.94c.578-.98 1.828-1.419 2.838-.887a2.1 2.1 0 0 1 .833 2.93l-7.804 13.134Z" fill="#BF1304"/><path d="M45.639 6.023h3.755l7.58 16.996 7.612-16.996h3.764v21.354h-3.401V12.64h-.147l-6.555 14.737h-2.53L49.195 12.64h-.147v14.737h-3.4V6.023h-.008ZM70.871 19.557c0-5.267 4.118-8.12 8.182-8.12s8.182 2.86 8.182 8.12c0 5.267-4.118 8.12-8.182 8.12-4.056 0-8.182-2.853-8.182-8.12Zm13.056 0c0-3.216-2.314-5.082-4.874-5.082-2.56 0-4.904 1.866-4.904 5.082 0 3.216 2.344 5.082 4.904 5.082s4.874-1.866 4.874-5.082ZM104.108 18.177v9.2h-3.339v-8.66c0-2.738-1.504-4.273-3.818-4.273-2.26 0-3.848 1.535-3.848 4.272v8.66h-3.308V11.738h3.308v2.345c.84-1.443 2.499-2.646 5.02-2.646 3.216 0 5.985 2.013 5.985 6.74ZM122.06 20.822h-12.269c.509 2.706 2.645 4.087 5.321 4.087 1.681 0 3.185-.54 4.334-1.627l1.566 1.627c-1.35 1.681-3.609 2.768-6.255 2.768-4.241 0-8.089-2.915-8.089-8.12 0-5.267 3.879-8.12 7.85-8.12 3.972 0 8.298 2.83 7.542 9.385Zm-12.3-2.468h9.355c-.178-2.707-2.345-4.087-4.573-4.087-2.198 0-4.304 1.318-4.782 4.087ZM129.01 14.413v8.575c0 .903.478 1.597 1.712 1.597.362 0 .871-.062 1.442-.27v2.614c-.571.478-1.596.633-2.437.633-2.375 0-4.056-1.173-4.056-3.972v-9.177h-2.167v-2.676h2.167V7.735h3.339v4.002h3.154v2.676h-3.154ZM133.969 19.557c0-5.383 3.879-8.12 7.58-8.12 2.861 0 4.843 1.565 5.414 2.799h.092v-2.499h3.309v15.64h-3.309v-2.499h-.092c-.571 1.234-2.56 2.8-5.414 2.8-3.694 0-7.58-2.738-7.58-8.121Zm13.179 0c0-3.37-2.437-5.113-4.966-5.113-2.499 0-4.936 1.743-4.936 5.113s2.437 5.113 4.936 5.113c2.529 0 4.966-1.743 4.966-5.113Z" fill="#fff"/></g><defs><clipPath id="a"><path fill="#fff" d="M0 0h150.362v33.7H0z"/></clipPath></defs></svg>