<svg width="48" height="48" fill="none" xmlns="http://www.w3.org/2000/svg"><path fill-rule="evenodd" clip-rule="evenodd" d="M31.125 4c-6.927 0-12.541 5.615-12.541 12.542l.001.183c6.388.899 11.458 5.97 12.357 12.356.062.002.123.002.183.002 6.927 0 12.542-5.614 12.542-12.541C43.667 9.615 38.052 4 31.125 4ZM16.584 16.542C16.584 8.51 23.093 2 31.125 2c8.032 0 14.542 6.51 14.542 14.542 0 8.031-6.51 14.541-14.542 14.541-.387 0-.79-.022-1.142-.043a1 1 0 0 1-.938-.92c-.482-6.114-5.385-11.016-11.498-11.498a1 1 0 0 1-.92-.938c-.02-.352-.043-.755-.043-1.142Z" fill="#E2938C"/><path fill-rule="evenodd" clip-rule="evenodd" d="M16.542 18.583C9.615 18.583 4 24.198 4 31.125s5.615 12.541 12.542 12.541c6.926 0 12.541-5.614 12.541-12.541 0-.318-.018-.662-.039-1.015-.486-6.106-5.382-11.001-11.488-11.488-.353-.02-.697-.039-1.014-.039ZM2 31.125c0-8.032 6.51-14.542 14.542-14.542.387 0 .79.023 1.142.043l.02.002c7.094.56 12.775 6.24 13.335 13.335l.001.02c.02.351.043.754.043 1.142 0 8.031-6.51 14.541-14.541 14.541C8.51 45.666 2 39.156 2 31.125Z" fill="#BF1304"/><path fill-rule="evenodd" clip-rule="evenodd" d="M17 23a1 1 0 0 1 1 1v6h6a1 1 0 1 1 0 2h-7a1 1 0 0 1-1-1v-7a1 1 0 0 1 1-1Z" fill="#BF1304"/><path fill-rule="evenodd" clip-rule="evenodd" d="M16 40a1 1 0 0 1-1-1v-6H9a1 1 0 1 1 0-2h7a1 1 0 0 1 1 1v7a1 1 0 0 1-1 1Z" fill="#BF1304"/></svg>