<svg width="60" height="60" fill="none" xmlns="http://www.w3.org/2000/svg"><path d="M5 42.65h25" stroke="#BF1304" stroke-width="2" stroke-miterlimit="10" stroke-linecap="round" stroke-linejoin="round"/><path d="M10.55 33.75h13.9c4.45 0 5.55 1.1 5.55 5.5v10.275c0 4.4-1.1 5.5-5.55 5.5h-13.9c-4.45 0-5.55-1.1-5.55-5.5V39.25c0-4.4 1.1-5.5 5.55-5.5Z" stroke="#BF1304" stroke-width="2" stroke-linecap="round" stroke-linejoin="round"/><path opacity=".4" d="M55 37.5C55 47.175 47.175 55 37.5 55l2.625-4.375M5 22.5C5 12.825 12.825 5 22.5 5l-2.625 4.375" stroke="#BF1304" stroke-width="2" stroke-linecap="round" stroke-linejoin="round"/><path d="M46.25 27.5c6.213 0 11.25-5.037 11.25-11.25S52.463 5 46.25 5 35 10.037 35 16.25 40.037 27.5 46.25 27.5Z" stroke="#BF1304" stroke-width="2" stroke-linecap="round" stroke-linejoin="round"/></svg>