<svg width="60" height="60" fill="none" xmlns="http://www.w3.org/2000/svg"><path d="m32.525 7.3 14.75 6.55c4.25 1.875 4.25 4.975 0 6.85l-14.75 6.55c-1.675.75-4.425.75-6.1 0l-14.75-6.55c-4.25-1.875-4.25-4.975 0-6.85l14.75-6.55c1.675-.75 4.425-.75 6.1 0Z" stroke="#BF1304" stroke-width="2" stroke-linecap="round" stroke-linejoin="round"/><path opacity=".4" d="M7.5 27.5c0 2.1 1.575 4.525 3.5 5.375l16.975 7.55a4.97 4.97 0 0 0 4.05 0L49 32.875c1.925-.85 3.5-3.275 3.5-5.375" stroke="#BF1304" stroke-width="2" stroke-linecap="round" stroke-linejoin="round"/><path opacity=".4" d="M7.5 40a5.893 5.893 0 0 0 3.5 5.375l16.975 7.55a4.97 4.97 0 0 0 4.05 0L49 45.375A5.893 5.893 0 0 0 52.5 40" stroke="#BF1304" stroke-width="2" stroke-linecap="round" stroke-linejoin="round"/></svg>