<svg width="48" height="48" fill="none" xmlns="http://www.w3.org/2000/svg"><path d="M11.5 27.5 17 33l5.5-5.5" stroke="#BF1304" stroke-width="2" stroke-linecap="round" stroke-linejoin="round"/><path fill-rule="evenodd" clip-rule="evenodd" d="M17 7a1 1 0 0 1 1 1v25a1 1 0 1 1-2 0V8a1 1 0 0 1 1-1ZM25.293 35.293a1 1 0 0 1 1.414 0l4.793 4.793 4.793-4.793a1 1 0 0 1 1.414 1.414l-5.5 5.5a1 1 0 0 1-1.414 0l-5.5-5.5a1 1 0 0 1 0-1.414Z" fill="#BF1304"/><path fill-rule="evenodd" clip-rule="evenodd" d="M31.5 15.5a1 1 0 0 1 1 1v25a1 1 0 1 1-2 0v-25a1 1 0 0 1 1-1Z" fill="#BF1304"/><path fill-rule="evenodd" clip-rule="evenodd" d="M11 12.5a4 4 0 1 0 0 8 4 4 0 0 0 0-8Zm-6 4a6 6 0 1 1 12 0 6 6 0 0 1-12 0Z" fill="#E29892"/><path fill-rule="evenodd" clip-rule="evenodd" d="M11 13.5a1 1 0 0 1 1 1v4a1 1 0 1 1-2 0v-4a1 1 0 0 1 1-1Z" fill="#E29892"/><path fill-rule="evenodd" clip-rule="evenodd" d="M14 16.5a1 1 0 0 1-1 1H9a1 1 0 1 1 0-2h4a1 1 0 0 1 1 1ZM36 7a5 5 0 1 0 0 10 5 5 0 0 0 0-10Zm-7 5a7 7 0 1 1 14 0 7 7 0 0 1-14 0Z" fill="#E29892"/><path fill-rule="evenodd" clip-rule="evenodd" d="M36 8.6a1 1 0 0 1 1 1v4.8a1 1 0 1 1-2 0V9.6a1 1 0 0 1 1-1Z" fill="#E29892"/><path fill-rule="evenodd" clip-rule="evenodd" d="M39.4 12a1 1 0 0 1-1 1h-4.8a1 1 0 1 1 0-2h4.8a1 1 0 0 1 1 1Z" fill="#E29892"/></svg>