<svg width="62" height="62" fill="none" xmlns="http://www.w3.org/2000/svg"><path d="M38.8 32.74v8.19c0 6.84-2.73 9.57-9.57 9.57h-8.16c-6.81 0-9.57-2.73-9.57-9.57v-8.19c0-6.81 2.73-9.54 9.57-9.54h8.19c6.81 0 9.54 2.73 9.54 9.54z" stroke="#BF1304" stroke-width="2" stroke-linecap="round" stroke-linejoin="round"/><path d="M50.5 21.04v8.19c0 6.84-2.73 9.57-9.57 9.57H38.8v-6.06c0-6.81-2.73-9.54-9.57-9.54H23.2v-2.16c0-6.84 2.73-9.54 9.57-9.54h8.19c6.81 0 9.54 2.73 9.54 9.54z" stroke="#BF1304" stroke-width="2" stroke-linecap="round" stroke-linejoin="round"/><path opacity=".4" d="M61 40c0 11.61-9.39 21-21 21l3.15-5.25M1 22C1 10.39 10.39 1 22 1l-3.15 5.25" stroke="#BF1304" stroke-width="2" stroke-linecap="round" stroke-linejoin="round"/></svg>