<svg width="48" height="48" fill="none" xmlns="http://www.w3.org/2000/svg"><path fill-rule="evenodd" clip-rule="evenodd" d="M23.542 11C16.615 11 11 16.615 11 23.542c0 6.926 5.615 12.541 12.542 12.541 6.926 0 12.541-5.614 12.541-12.541 0-.318-.018-.662-.039-1.015-.486-6.106-5.382-11.001-11.488-11.488-.353-.02-.697-.039-1.014-.039ZM9 23.542C9 15.51 15.51 9 23.542 9c.387 0 .79.023 1.142.043l.02.002c7.094.56 12.775 6.24 13.335 13.335l.001.02c.02.351.043.754.043 1.142 0 8.031-6.51 14.541-14.541 14.541C15.51 38.083 9 31.573 9 23.542Z" fill="#BF1304"/><path fill-rule="evenodd" clip-rule="evenodd" d="M24 15a1 1 0 0 1 1 1v6h6a1 1 0 1 1 0 2h-7a1 1 0 0 1-1-1v-7a1 1 0 0 1 1-1Z" fill="#BF1304"/><path fill-rule="evenodd" clip-rule="evenodd" d="M23 32a1 1 0 0 1-1-1v-6h-6a1 1 0 1 1 0-2h7a1 1 0 0 1 1 1v7a1 1 0 0 1-1 1Z" fill="#BF1304"/><path fill-rule="evenodd" clip-rule="evenodd" d="M23.5 5c-.613 0-1.218.03-1.815.088a1 1 0 1 1-.194-1.99 20.738 20.738 0 0 1 2.425-.092c.144.003.28.037.403.095a.997.997 0 0 1 .405-.062l.395.023.02.001c.81.064 1.606.175 2.387.33a1 1 0 0 1-.392 1.962c-.7-.14-1.416-.24-2.143-.297l-.375-.022a.997.997 0 0 1-.374-.094.997.997 0 0 1-.377.063A14.452 14.452 0 0 0 23.5 5Zm-4.706-.455a1 1 0 0 1-.667 1.247c-1.17.354-2.29.821-3.349 1.388a1 1 0 0 1-.944-1.763 20.38 20.38 0 0 1 3.713-1.54 1 1 0 0 1 1.247.668Zm11.977.829a1 1 0 0 1 1.327-.487c1.467.68 2.84 1.529 4.096 2.52a1 1 0 1 1-1.24 1.57 18.536 18.536 0 0 0-3.697-2.275 1 1 0 0 1-.486-1.328ZM11.9 7.79a1 1 0 0 1-.137 1.407c-.937.77-1.796 1.63-2.566 2.566a1 1 0 0 1-1.545-1.27 20.614 20.614 0 0 1 2.841-2.841 1 1 0 0 1 1.408.138Zm26.287 2.851a1 1 0 0 1 1.404.165 20.534 20.534 0 0 1 2.52 4.095 1 1 0 1 1-1.814.84 18.53 18.53 0 0 0-2.275-3.695 1 1 0 0 1 .165-1.405ZM6.77 13.425a1 1 0 0 1 .41 1.353 18.376 18.376 0 0 0-1.39 3.35 1 1 0 1 1-1.913-.58 20.38 20.38 0 0 1 1.54-3.714 1 1 0 0 1 1.353-.41Zm35.659 5.264a1 1 0 0 1 1.176.785c.156.781.267 1.578.33 2.387l.002.02.023.395a.995.995 0 0 1-.062.405.995.995 0 0 1 .095.403 20.75 20.75 0 0 1-.092 2.425 1 1 0 0 1-1.99-.194 18.765 18.765 0 0 0 .083-2.18.998.998 0 0 1 .063-.377 1 1 0 0 1-.094-.374 64.06 64.06 0 0 0-.022-.375 18.37 18.37 0 0 0-.297-2.143 1 1 0 0 1 .785-1.177ZM4.19 20.593a1 1 0 0 1 .898 1.092 18.736 18.736 0 0 0 0 3.63 1 1 0 1 1-1.99.194 20.738 20.738 0 0 1 0-4.018 1 1 0 0 1 1.091-.898Zm.355 7.613a1 1 0 0 1 1.247.667c.354 1.17.821 2.29 1.388 3.349a1 1 0 0 1-1.763.944 20.38 20.38 0 0 1-1.54-3.713 1 1 0 0 1 .668-1.247Zm37.91 0a1 1 0 0 1 .667 1.247 20.384 20.384 0 0 1-1.54 3.713 1 1 0 1 1-1.763-.944 18.375 18.375 0 0 0 1.39-3.35 1 1 0 0 1 1.246-.666ZM7.791 35.098a1 1 0 0 1 1.407.138c.77.937 1.63 1.796 2.566 2.566a1 1 0 0 1-1.27 1.545 20.611 20.611 0 0 1-2.841-2.841 1 1 0 0 1 .138-1.408Zm31.418 0a1 1 0 0 1 .138 1.408 20.609 20.609 0 0 1-2.841 2.841 1 1 0 1 1-1.27-1.545c.937-.77 1.796-1.63 2.566-2.566a1 1 0 0 1 1.407-.138Zm-25.785 5.13a1 1 0 0 1 1.354-.409c1.06.568 2.18 1.035 3.35 1.39a1 1 0 1 1-.58 1.913 20.384 20.384 0 0 1-3.714-1.54 1 1 0 0 1-.41-1.353Zm20.151 0a1 1 0 0 1-.409 1.355 20.384 20.384 0 0 1-3.713 1.54 1 1 0 0 1-.58-1.915c1.17-.354 2.29-.821 3.349-1.389a1 1 0 0 1 1.353.41Zm-12.982 2.583a1 1 0 0 1 1.092-.899 18.765 18.765 0 0 0 3.63 0 1 1 0 1 1 .194 1.99 20.75 20.75 0 0 1-4.018 0 1 1 0 0 1-.898-1.091Z" fill="#E2938C"/></svg>