<svg width="60" height="60" fill="none" xmlns="http://www.w3.org/2000/svg"><path d="M52.7 21.45v17.1c0 2.8-1.5 5.4-3.925 6.825l-14.85 8.575a7.908 7.908 0 0 1-7.875 0L11.2 45.375a7.874 7.874 0 0 1-3.925-6.825v-17.1c0-2.8 1.5-5.4 3.925-6.825L26.05 6.05a7.908 7.908 0 0 1 7.875 0l14.85 8.575A7.904 7.904 0 0 1 52.7 21.45Z" stroke="#BF1304" stroke-width="2" stroke-linecap="round" stroke-linejoin="round"/><path opacity=".4" d="M30 27.5a5.825 5.825 0 1 0 0-11.65 5.825 5.825 0 0 0 0 11.65ZM40 41.65c0-4.5-4.475-8.15-10-8.15s-10 3.65-10 8.15" stroke="#BF1304" stroke-width="2" stroke-linecap="round" stroke-linejoin="round"/></svg>