<svg width="108" height="108" fill="none" xmlns="http://www.w3.org/2000/svg"><path fill-rule="evenodd" clip-rule="evenodd" d="M42.3 44.2c-11.873 0-21.5 9.626-21.5 21.5s9.627 21.5 21.5 21.5c11.875 0 21.5-9.626 21.5-21.5s-9.625-21.5-21.5-21.5ZM18.8 65.7c0-12.979 10.522-23.5 23.5-23.5 12.98 0 23.5 10.521 23.5 23.5S55.28 89.2 42.3 89.2c-12.978 0-23.5-10.521-23.5-23.5Z" fill="#bf1304"/><path fill-rule="evenodd" clip-rule="evenodd" d="M43.201 51.2a1 1 0 0 1 1 1v11.6h11.6a1 1 0 1 1 0 2h-12.6a1 1 0 0 1-1-1V52.2a1 1 0 0 1 1-1ZM41.401 80.2a1 1 0 0 1-1-1V67.6h-11.6a1 1 0 1 1 0-2h12.6a1 1 0 0 1 1 1v12.6a1 1 0 0 1-1 1Z" fill="#bf1304"/><path opacity=".4" fill-rule="evenodd" clip-rule="evenodd" d="M46.425 18.86a39.44 39.44 0 0 1 4.352 0 1 1 0 1 1-.11 1.998 37.406 37.406 0 0 0-4.132 0 1 1 0 1 1-.11-1.997Zm-3.173 1.303a1 1 0 0 1-.82 1.152 36.583 36.583 0 0 0-4.023.915 1 1 0 0 1-.553-1.922c1.384-.398 2.8-.721 4.244-.965a1 1 0 0 1 1.152.82Zm10.698 0a1 1 0 0 1 1.152-.82 38.56 38.56 0 0 1 4.244.965 1 1 0 0 1-.553 1.922 36.59 36.59 0 0 0-4.024-.915 1 1 0 0 1-.82-1.152Zm-18.895 2.123a1 1 0 0 1-.54 1.307 36.61 36.61 0 0 0-3.717 1.793 1 1 0 0 1-.97-1.75 38.635 38.635 0 0 1 3.92-1.89 1 1 0 0 1 1.307.54Zm27.091 0a1 1 0 0 1 1.307-.54 38.626 38.626 0 0 1 3.92 1.89 1 1 0 0 1-.97 1.75 36.63 36.63 0 0 0-3.716-1.793 1 1 0 0 1-.54-1.307Zm-34.605 3.905a1 1 0 0 1-.236 1.394 36.977 36.977 0 0 0-3.226 2.575 1 1 0 1 1-1.333-1.49 38.972 38.972 0 0 1 3.4-2.715 1 1 0 0 1 1.395.236Zm42.12 0a1 1 0 0 1 1.394-.236 38.967 38.967 0 0 1 3.4 2.715 1 1 0 0 1-1.333 1.49 36.977 36.977 0 0 0-3.225-2.575 1 1 0 0 1-.236-1.394Zm-48.58 5.476a1 1 0 0 1 .08 1.412 36.977 36.977 0 0 0-2.576 3.226 1 1 0 0 1-1.63-1.159 38.952 38.952 0 0 1 2.715-3.4 1 1 0 0 1 1.412-.079Zm55.039 0a1 1 0 0 1 1.412.08 38.971 38.971 0 0 1 2.715 3.4 1 1 0 1 1-1.63 1.158 36.978 36.978 0 0 0-2.576-3.226 1 1 0 0 1 .079-1.412Zm-60.124 6.771a1 1 0 0 1 .39 1.36 36.61 36.61 0 0 0-1.793 3.716 1 1 0 0 1-1.848-.766 38.625 38.625 0 0 1 1.891-3.92 1 1 0 0 1 1.36-.39Zm65.21 0a1 1 0 0 1 1.36.39 38.656 38.656 0 0 1 1.89 3.92 1 1 0 1 1-1.847.767 36.631 36.631 0 0 0-1.793-3.717 1 1 0 0 1 .39-1.36Zm-68.66 7.733a1 1 0 0 1 .684 1.238 36.583 36.583 0 0 0-.915 4.023 1 1 0 1 1-1.972-.333c.244-1.443.567-2.859.965-4.243a1 1 0 0 1 1.238-.685Zm72.11 0a1 1 0 0 1 1.237.685c.399 1.384.722 2.8.965 4.244a1 1 0 0 1-1.972.332 36.56 36.56 0 0 0-.915-4.023 1 1 0 0 1 .685-1.238Zm-73.742 8.31a1 1 0 0 1 .944 1.054 37.403 37.403 0 0 0 0 4.131 1 1 0 1 1-1.997.11 39.407 39.407 0 0 1 0-4.351 1 1 0 0 1 1.053-.943Zm75.373 0a1 1 0 0 1 1.054.944 39.44 39.44 0 0 1 0 4.352 1 1 0 0 1-1.997-.11 37.406 37.406 0 0 0 0-4.132 1 1 0 0 1 .943-1.053ZM11.163 62.95a1 1 0 0 1 1.152.82 36.59 36.59 0 0 0 .915 4.023 1 1 0 1 1-1.922.553 38.565 38.565 0 0 1-.965-4.244 1 1 0 0 1 .82-1.152Zm74.876 0a1 1 0 0 1 .82 1.152 38.56 38.56 0 0 1-.966 4.244 1 1 0 1 1-1.922-.553c.378-1.313.684-2.655.915-4.024a1 1 0 0 1 1.153-.82Zm-72.753 8.196a1 1 0 0 1 1.307.541 36.63 36.63 0 0 0 1.793 3.717 1 1 0 0 1-1.75.969 38.626 38.626 0 0 1-1.89-3.92 1 1 0 0 1 .54-1.307Zm70.63 0a1 1 0 0 1 .54 1.307 38.647 38.647 0 0 1-1.89 3.92 1 1 0 0 1-1.75-.97c.664-1.199 1.263-2.44 1.793-3.716a1 1 0 0 1 1.307-.54ZM17.19 78.661a1 1 0 0 1 1.394.236 36.977 36.977 0 0 0 2.575 3.225 1 1 0 1 1-1.49 1.333 38.987 38.987 0 0 1-2.715-3.4 1 1 0 0 1 .236-1.394Zm62.82 0a1 1 0 0 1 .236 1.394 38.986 38.986 0 0 1-2.715 3.4 1 1 0 0 1-1.491-1.333 36.978 36.978 0 0 0 2.576-3.225 1 1 0 0 1 1.394-.236ZM22.667 85.12a1 1 0 0 1 1.412-.079 36.978 36.978 0 0 0 3.226 2.576 1 1 0 1 1-1.159 1.63 38.971 38.971 0 0 1-3.4-2.715 1 1 0 0 1-.079-1.412Zm51.867 0a1 1 0 0 1-.079 1.412 38.986 38.986 0 0 1-3.4 2.715 1 1 0 1 1-1.158-1.63 36.978 36.978 0 0 0 3.225-2.576 1 1 0 0 1 1.412.079Zm-45.096 5.086a1 1 0 0 1 1.36-.39c1.2.664 2.44 1.263 3.716 1.793a1 1 0 1 1-.766 1.847 38.645 38.645 0 0 1-3.92-1.89 1 1 0 0 1-.39-1.36Zm38.325 0a1 1 0 0 1-.39 1.36 38.647 38.647 0 0 1-3.92 1.89 1 1 0 1 1-.766-1.847 36.652 36.652 0 0 0 3.717-1.793 1 1 0 0 1 1.36.39Zm-30.592 3.45a1 1 0 0 1 1.238-.685 36.56 36.56 0 0 0 4.023.915 1 1 0 0 1-.333 1.972 38.565 38.565 0 0 1-4.243-.965 1 1 0 0 1-.685-1.237Zm22.86 0a1 1 0 0 1-.685 1.237c-1.385.399-2.8.722-4.244.965a1 1 0 0 1-.333-1.972 36.566 36.566 0 0 0 4.024-.915 1 1 0 0 1 1.237.685Zm-14.55 1.631a1 1 0 0 1 1.054-.943 37.403 37.403 0 0 0 4.131 0 1 1 0 0 1 .11 1.997 39.437 39.437 0 0 1-4.351 0 1 1 0 0 1-.943-1.054ZM51.98 2.64a52.303 52.303 0 0 1 4.04 0 1 1 0 1 1-.076 1.998 50.293 50.293 0 0 0-3.886 0 1 1 0 0 1-.078-1.998Zm6.955 1.19a1 1 0 0 1 1.11-.878c1.345.158 2.674.367 3.986.627a1 1 0 1 1-.388 1.962c-1.26-.25-2.538-.45-3.831-.602a1 1 0 0 1-.877-1.11Zm-9.869 0a1 1 0 0 1-.877 1.109c-1.293.151-2.57.353-3.83.602a1 1 0 1 1-.389-1.962 51.289 51.289 0 0 1 3.987-.627 1 1 0 0 1 1.11.877Zm17.658 1.38a1 1 0 0 1 1.234-.692c1.3.367 2.58.783 3.838 1.247a1 1 0 1 1-.693 1.876 49.004 49.004 0 0 0-3.687-1.197 1 1 0 0 1-.692-1.234Zm-25.447 0a1 1 0 0 1-.692 1.234c-1.25.352-2.48.751-3.687 1.197a1 1 0 0 1-.693-1.876 51.007 51.007 0 0 1 3.838-1.247 1 1 0 0 1 1.234.692ZM33.803 7.8a1 1 0 0 1-.489 1.327 49.208 49.208 0 0 0-3.455 1.764 1 1 0 0 1-.979-1.744c1.171-.657 2.37-1.27 3.595-1.836a1 1 0 0 1 1.328.489Zm40.396 0a1 1 0 0 1 1.327-.489 51.224 51.224 0 0 1 3.595 1.836 1 1 0 0 1-.98 1.744 49.234 49.234 0 0 0-3.454-1.764A1 1 0 0 1 74.2 7.8Zm6.974 3.733a1 1 0 0 1 1.387-.274c1.12.75 2.208 1.542 3.263 2.375a1 1 0 1 1-1.239 1.57 49.576 49.576 0 0 0-3.137-2.283 1 1 0 0 1-.274-1.388Zm-54.345 0a1 1 0 0 1-.274 1.388 49.576 49.576 0 0 0-3.137 2.283 1 1 0 1 1-1.24-1.57 51.6 51.6 0 0 1 3.264-2.375 1 1 0 0 1 1.387.274Zm-6.305 4.778a1 1 0 0 1-.055 1.414 49.71 49.71 0 0 0-2.743 2.743 1 1 0 0 1-1.469-1.358 51.695 51.695 0 0 1 2.854-2.854 1 1 0 0 1 1.413.055Zm66.955 0a1 1 0 0 1 1.413-.055c.988.914 1.94 1.866 2.854 2.854a1 1 0 1 1-1.468 1.358 49.71 49.71 0 0 0-2.744-2.743 1 1 0 0 1-.055-1.414Zm5.485 5.701a1 1 0 0 1 1.404.166 51.561 51.561 0 0 1 2.376 3.263 1 1 0 0 1-1.662 1.113 49.537 49.537 0 0 0-2.284-3.137 1 1 0 0 1 .166-1.405Zm-77.925 0a1 1 0 0 1 .166 1.405 49.576 49.576 0 0 0-2.283 3.137 1 1 0 0 1-1.662-1.113 51.6 51.6 0 0 1 2.375-3.263 1 1 0 0 1 1.404-.166Zm82.455 6.486a1 1 0 0 1 1.361.383c.657 1.17 1.27 2.37 1.836 3.594a1 1 0 0 1-1.816.839 49.152 49.152 0 0 0-1.764-3.455 1 1 0 0 1 .383-1.361Zm-86.985 0a1 1 0 0 1 .383 1.361 49.231 49.231 0 0 0-1.764 3.455 1 1 0 1 1-1.816-.839 51.224 51.224 0 0 1 1.836-3.595 1 1 0 0 1 1.361-.382ZM7.05 35.613a1 1 0 0 1 .592 1.285 48.989 48.989 0 0 0-1.197 3.687 1 1 0 0 1-1.926-.542 51.007 51.007 0 0 1 1.247-3.838 1 1 0 0 1 1.284-.592Zm93.903 0a1 1 0 0 1 1.284.592c.464 1.257.88 2.537 1.247 3.838a1 1 0 0 1-1.925.542 48.91 48.91 0 0 0-1.198-3.687 1 1 0 0 1 .592-1.285Zm2.295 7.57a1 1 0 0 1 1.175.787c.26 1.312.469 2.641.627 3.987a1 1 0 1 1-1.987.232 48.745 48.745 0 0 0-.602-3.83 1 1 0 0 1 .787-1.176Zm-98.493 0a1 1 0 0 1 .787 1.175c-.25 1.26-.45 2.538-.602 3.831a1 1 0 1 1-1.987-.232c.158-1.346.367-2.675.627-3.987a1 1 0 0 1 1.175-.787Zm99.57 7.837a1 1 0 0 1 1.038.96 52.122 52.122 0 0 1 0 4.04 1 1 0 0 1-1.999-.076 50.13 50.13 0 0 0 0-3.886 1 1 0 0 1 .961-1.038Zm-100.647 0a1 1 0 0 1 .961 1.038 50.29 50.29 0 0 0 0 3.886 1 1 0 0 1-1.998.077 52.294 52.294 0 0 1 0-4.04 1 1 0 0 1 1.037-.961Zm100.495 7.915a1 1 0 0 1 .877 1.11 51.235 51.235 0 0 1-.627 3.986 1 1 0 1 1-1.962-.388c.25-1.26.451-2.538.602-3.831a1.001 1.001 0 0 1 1.11-.877Zm-100.343 0a1 1 0 0 1 1.11.877c.151 1.293.353 2.57.602 3.83a1 1 0 1 1-1.962.389 51.296 51.296 0 0 1-.627-3.987 1 1 0 0 1 .877-1.11Zm98.962 7.79a1 1 0 0 1 .692 1.233 51.307 51.307 0 0 1-1.247 3.838 1 1 0 1 1-1.876-.693 48.925 48.925 0 0 0 1.198-3.687.999.999 0 0 1 1.233-.692Zm-97.58 0a1 1 0 0 1 1.233.69c.352 1.25.751 2.48 1.197 3.688a1 1 0 1 1-1.876.693 51.005 51.005 0 0 1-1.247-3.838 1 1 0 0 1 .692-1.234ZM7.8 74.198a1 1 0 0 1 1.327.488 49.23 49.23 0 0 0 1.764 3.455 1 1 0 0 1-1.744.979 51.224 51.224 0 0 1-1.836-3.595 1 1 0 0 1 .489-1.327Zm92.401 0a1 1 0 0 1 .489 1.327 51.296 51.296 0 0 1-1.836 3.595 1 1 0 1 1-1.744-.98 49.174 49.174 0 0 0 1.764-3.454 1 1 0 0 1 1.327-.488Zm-3.733 6.974a1 1 0 0 1 .275 1.387 51.563 51.563 0 0 1-2.376 3.263 1 1 0 1 1-1.57-1.239c.801-1.014 1.563-2.06 2.284-3.137a1 1 0 0 1 1.387-.274Zm-84.935 0a1 1 0 0 1 1.388.274 49.576 49.576 0 0 0 2.283 3.137 1 1 0 1 1-1.57 1.24 51.602 51.602 0 0 1-2.375-3.264 1 1 0 0 1 .274-1.387Zm4.778 6.305a1 1 0 0 1 1.414.055 49.71 49.71 0 0 0 2.743 2.744 1 1 0 1 1-1.358 1.468 51.693 51.693 0 0 1-2.854-2.854 1 1 0 0 1 .055-1.413Zm75.379 0a1 1 0 0 1 .055 1.413 51.691 51.691 0 0 1-2.854 2.854 1 1 0 1 1-1.358-1.468 49.71 49.71 0 0 0 2.744-2.744 1 1 0 0 1 1.413-.055Zm-69.678 5.485a1 1 0 0 1 1.405-.165c1.014.8 2.06 1.562 3.137 2.282a1 1 0 0 1-1.113 1.663 51.561 51.561 0 0 1-3.263-2.376 1 1 0 0 1-.166-1.404Zm63.977 0a1 1 0 0 1-.166 1.404 51.563 51.563 0 0 1-3.263 2.376 1 1 0 0 1-1.113-1.662 49.537 49.537 0 0 0 3.137-2.284 1 1 0 0 1 1.405.166Zm-57.491 4.53a1 1 0 0 1 1.361-.383 49.172 49.172 0 0 0 3.455 1.764 1 1 0 1 1-.839 1.816 51.296 51.296 0 0 1-3.595-1.836 1 1 0 0 1-.382-1.361Zm51.005 0a1 1 0 0 1-.382 1.361c-1.171.657-2.37 1.27-3.595 1.836a1 1 0 0 1-.839-1.816 49.174 49.174 0 0 0 3.455-1.764 1 1 0 0 1 1.361.383Zm-43.89 3.459a1 1 0 0 1 1.285-.592 48.91 48.91 0 0 0 3.687 1.198.999.999 0 1 1-.542 1.925 51.309 51.309 0 0 1-3.838-1.247 1 1 0 0 1-.592-1.284Zm36.775 0a1 1 0 0 1-.592 1.284c-1.257.464-2.537.88-3.838 1.247a1 1 0 0 1-.542-1.925c1.25-.352 2.48-.752 3.688-1.198a1 1 0 0 1 1.284.592Zm-29.205 2.295a1 1 0 0 1 1.175-.787c1.26.25 2.538.451 3.831.602a1.001 1.001 0 0 1-.232 1.987 51.235 51.235 0 0 1-3.987-.627 1 1 0 0 1-.787-1.175Zm21.635 0a1 1 0 0 1-.787 1.175c-1.312.26-2.641.469-3.987.627a1 1 0 1 1-.232-1.987 48.752 48.752 0 0 0 3.83-.602 1 1 0 0 1 1.176.787Zm-13.798 1.077a1 1 0 0 1 1.038-.961 50.127 50.127 0 0 0 3.886 0 1 1 0 0 1 .077 1.999 52.113 52.113 0 0 1-4.04 0 1 1 0 0 1-.961-1.038Z" fill="#bf1304"/></svg>