<svg width="104" height="104" fill="none" xmlns="http://www.w3.org/2000/svg"><path fill-rule="evenodd" clip-rule="evenodd" d="M12.334 19.334a7 7 0 0 1 7-7h63a7 7 0 0 1 7 7v63a7 7 0 0 1-7 7h-63a7 7 0 0 1-7-7v-63Zm7-5a5 5 0 0 0-5 5v63a5 5 0 0 0 5 5h63a5 5 0 0 0 5-5v-63a5 5 0 0 0-5-5h-63Z" fill="#bf1304"/><path opacity=".4" fill-rule="evenodd" clip-rule="evenodd" d="M37.501 12.334a1 1 0 0 1 1 1v2.083a1 1 0 1 1-2 0v-2.083a1 1 0 0 1 1-1Zm29.167 0a1 1 0 0 1 1 1v2.083a1 1 0 1 1-2 0v-2.083a1 1 0 0 1 1-1ZM37.5 18.584a1 1 0 0 1 1 1v4.167a1 1 0 0 1-2 0v-4.167a1 1 0 0 1 1-1Zm29.167 0a1 1 0 0 1 1 1v4.167a1 1 0 0 1-2 0v-4.167a1 1 0 0 1 1-1ZM37.5 26.917a1 1 0 0 1 1 1v4.167a1 1 0 1 1-2 0v-4.167a1 1 0 0 1 1-1Zm29.167 0a1 1 0 0 1 1 1v4.167a1 1 0 1 1-2 0v-4.167a1 1 0 0 1 1-1ZM37.5 35.251a1 1 0 0 1 1 1v4.166a1 1 0 1 1-2 0v-4.166a1 1 0 0 1 1-1Zm29.167 0a1 1 0 0 1 1 1v4.166a1 1 0 1 1-2 0v-4.166a1 1 0 0 1 1-1ZM37.5 43.584a1 1 0 0 1 1 1v4.167a1 1 0 1 1-2 0v-4.167a1 1 0 0 1 1-1Zm29.167 0a1 1 0 0 1 1 1v4.167a1 1 0 1 1-2 0v-4.167a1 1 0 0 1 1-1ZM37.5 51.917a1 1 0 0 1 1 1v4.167a1 1 0 1 1-2 0v-4.167a1 1 0 0 1 1-1Zm29.167 0a1 1 0 0 1 1 1v4.167a1 1 0 1 1-2 0v-4.167a1 1 0 0 1 1-1ZM37.5 60.251a1 1 0 0 1 1 1v4.166a1 1 0 1 1-2 0v-4.166a1 1 0 0 1 1-1Zm29.167 0a1 1 0 0 1 1 1v4.166a1 1 0 1 1-2 0v-4.166a1 1 0 0 1 1-1ZM37.5 68.584a1 1 0 0 1 1 1v4.167a1 1 0 0 1-2 0v-4.167a1 1 0 0 1 1-1Zm29.167 0a1 1 0 0 1 1 1v4.167a1 1 0 0 1-2 0v-4.167a1 1 0 0 1 1-1ZM37.5 76.917a1 1 0 0 1 1 1v4.167a1 1 0 1 1-2 0v-4.167a1 1 0 0 1 1-1Zm29.167 0a1 1 0 0 1 1 1v4.167a1 1 0 1 1-2 0v-4.167a1 1 0 0 1 1-1ZM37.5 85.251a1 1 0 0 1 1 1v2.083a1 1 0 1 1-2 0v-2.083a1 1 0 0 1 1-1Zm29.167 0a1 1 0 0 1 1 1v2.083a1 1 0 1 1-2 0v-2.083a1 1 0 0 1 1-1Z" fill="#bf1304"/><path opacity=".2" d="M66.667 13.334h15.167a6.5 6.5 0 0 1 6.5 6.5v62a6.5 6.5 0 0 1-6.5 6.5H66.667v-75Z" fill="#bf1304"/></svg>